<mxfile host="app.diagrams.net" modified="2021-06-01T14:28:29.468Z" agent="5.0 (X11; Linux x86_64) AppleWebKit/537.36 (KHTML, like Gecko) Chrome/91.0.4472.77 Safari/537.36" etag="YQX8KPmpjH_ei6VFDdEk" version="14.7.3" type="github" pages="2">
  <diagram name="Page-1" id="aaaa8250-4180-3840-79b5-4cada1eebb92">
    <mxGraphModel dx="1656" dy="866" grid="1" gridSize="10" guides="1" tooltips="1" connect="1" arrows="1" fold="1" page="1" pageScale="1" pageWidth="850" pageHeight="1100" background="none" math="0" shadow="0">
      <root>
        <mxCell id="0" />
        <mxCell id="1" parent="0" />
        <mxCell id="d5ac148becb70bc-7" value="" style="verticalLabelPosition=bottom;html=1;verticalAlign=top;strokeWidth=1;dashed=0;shape=mxgraph.aws3d.flatDoubleEdge;fillColor=#000000;aspect=fixed;rounded=1;shadow=0;comic=0;fontFamily=Verdana;fontSize=12;flipV=1;" parent="1" vertex="1">
          <mxGeometry x="1602" y="1328" width="584" height="333" as="geometry" />
        </mxCell>
        <mxCell id="1a8abee3a6cfdf20-38" value="" style="verticalLabelPosition=bottom;html=1;verticalAlign=top;strokeWidth=1;dashed=0;shape=mxgraph.aws3d.flatDoubleEdge;fillColor=#000000;aspect=fixed;rounded=1;shadow=0;comic=0;fontFamily=Verdana;fontSize=12;flipV=1;" parent="1" vertex="1">
          <mxGeometry x="972" y="992" width="626" height="357" as="geometry" />
        </mxCell>
        <mxCell id="1a8abee3a6cfdf20-28" value="" style="verticalLabelPosition=bottom;html=1;verticalAlign=top;strokeWidth=1;dashed=0;shape=mxgraph.aws3d.flatDoubleEdge;fillColor=#000000;aspect=fixed;rounded=1;shadow=0;comic=0;fontFamily=Verdana;fontSize=12;flipV=1;" parent="1" vertex="1">
          <mxGeometry x="262" y="779" width="512" height="292" as="geometry" />
        </mxCell>
        <mxCell id="1a8abee3a6cfdf20-3" value="" style="edgeStyle=isometricEdgeStyle;endArrow=none;html=1;labelBackgroundColor=none;strokeWidth=5;fontFamily=Verdana;fontSize=12" parent="1" edge="1">
          <mxGeometry width="50" height="100" relative="1" as="geometry">
            <mxPoint x="352" y="1308" as="sourcePoint" />
            <mxPoint x="262" y="1068" as="targetPoint" />
            <Array as="points">
              <mxPoint x="302" y="1208" />
            </Array>
          </mxGeometry>
        </mxCell>
        <mxCell id="1a8abee3a6cfdf20-4" value="" style="verticalLabelPosition=bottom;html=1;verticalAlign=top;strokeWidth=1;dashed=0;shape=mxgraph.aws3d.dynamoDb;fillColor=#ECECEC;strokeColor=#5E5E5E;aspect=fixed;rounded=1;shadow=0;comic=0;fontSize=12" parent="1" vertex="1">
          <mxGeometry x="188" y="1298" width="181.5" height="210" as="geometry" />
        </mxCell>
        <mxCell id="1a8abee3a6cfdf20-5" value="" style="edgeStyle=isometricEdgeStyle;endArrow=none;html=1;labelBackgroundColor=none;strokeColor=#000000;strokeWidth=5;fontFamily=Verdana;fontSize=12" parent="1" edge="1">
          <mxGeometry width="50" height="100" relative="1" as="geometry">
            <mxPoint x="422" y="1338" as="sourcePoint" />
            <mxPoint x="972" y="1358" as="targetPoint" />
            <Array as="points">
              <mxPoint x="682" y="1348" />
            </Array>
          </mxGeometry>
        </mxCell>
        <mxCell id="1a8abee3a6cfdf20-6" value="" style="verticalLabelPosition=bottom;html=1;verticalAlign=top;strokeWidth=1;dashed=0;shape=mxgraph.aws3d.elasticLoadBalancing;fillColor=#ECECEC;strokeColor=#5E5E5E;aspect=fixed;rounded=1;shadow=0;comic=0;fontSize=12;" parent="1" vertex="1">
          <mxGeometry x="312" y="948" width="92" height="88.17" as="geometry" />
        </mxCell>
        <mxCell id="1a8abee3a6cfdf20-7" value="" style="verticalLabelPosition=bottom;html=1;verticalAlign=top;strokeWidth=1;dashed=0;shape=mxgraph.aws3d.workflowService;fillColor=#ECECEC;strokeColor=#5E5E5E;aspect=fixed;rounded=1;shadow=0;comic=0;fontSize=12" parent="1" vertex="1">
          <mxGeometry x="511" y="788" width="182.20000000000002" height="148.4" as="geometry" />
        </mxCell>
        <mxCell id="1a8abee3a6cfdf20-8" value="" style="verticalLabelPosition=bottom;html=1;verticalAlign=top;strokeWidth=1;dashed=0;shape=mxgraph.aws3d.cloudfront;fillColor=#ECECEC;strokeColor=#5E5E5E;aspect=fixed;rounded=1;shadow=0;comic=0;fontSize=12" parent="1" vertex="1">
          <mxGeometry x="312" y="618" width="103.8" height="169.79999999999998" as="geometry" />
        </mxCell>
        <mxCell id="1a8abee3a6cfdf20-9" value="" style="verticalLabelPosition=bottom;html=1;verticalAlign=top;strokeWidth=1;dashed=0;shape=mxgraph.aws3d.internetGateway;fillColor=#ECECEC;strokeColor=#5E5E5E;aspect=fixed;rounded=1;shadow=0;comic=0;fontSize=12;flipH=1;flipV=0;" parent="1" vertex="1">
          <mxGeometry x="782" y="378" width="116.7" height="102.8" as="geometry" />
        </mxCell>
        <mxCell id="1a8abee3a6cfdf20-10" value="" style="verticalLabelPosition=bottom;html=1;verticalAlign=top;strokeWidth=1;dashed=0;shape=mxgraph.aws3d.internetGateway;fillColor=#ECECEC;strokeColor=#5E5E5E;aspect=fixed;rounded=1;shadow=0;comic=0;fontSize=12;flipH=1;flipV=0;" parent="1" vertex="1">
          <mxGeometry x="1694" y="827" width="116.7" height="102.8" as="geometry" />
        </mxCell>
        <mxCell id="1a8abee3a6cfdf20-11" value="" style="verticalLabelPosition=bottom;html=1;verticalAlign=top;strokeWidth=1;dashed=0;shape=mxgraph.aws3d.internetGateway;fillColor=#ECECEC;strokeColor=#5E5E5E;aspect=fixed;rounded=1;shadow=0;comic=0;fontSize=12;flipH=1;flipV=0;" parent="1" vertex="1">
          <mxGeometry x="2302" y="1151" width="116.7" height="102.8" as="geometry" />
        </mxCell>
        <mxCell id="1a8abee3a6cfdf20-12" value="" style="verticalLabelPosition=bottom;html=1;verticalAlign=top;strokeWidth=1;dashed=0;shape=mxgraph.aws3d.redshift;fillColor=#CC0000;strokeColor=#E6E6E6;aspect=fixed;rounded=1;shadow=0;comic=0;fontSize=12" parent="1" vertex="1">
          <mxGeometry x="1130" y="788" width="150" height="190" as="geometry" />
        </mxCell>
        <mxCell id="1a8abee3a6cfdf20-13" value="" style="verticalLabelPosition=bottom;html=1;verticalAlign=top;strokeWidth=1;dashed=0;shape=mxgraph.aws3d.simpleDb2;fillColor=#ECECEC;strokeColor=#5E5E5E;aspect=fixed;rounded=1;shadow=0;comic=0;fontSize=12" parent="1" vertex="1">
          <mxGeometry x="764" y="595" width="181.5" height="192.6" as="geometry" />
        </mxCell>
        <mxCell id="1a8abee3a6cfdf20-14" value="" style="verticalLabelPosition=bottom;html=1;verticalAlign=top;strokeWidth=1;dashed=0;shape=mxgraph.aws3d.snapshot;fillColor=#4286c5;strokeColor=#57A2D8;aspect=fixed;rounded=1;shadow=0;comic=0;fontSize=12" parent="1" vertex="1">
          <mxGeometry x="2000" y="1376" width="92" height="60" as="geometry" />
        </mxCell>
        <mxCell id="1a8abee3a6cfdf20-15" value="" style="verticalLabelPosition=bottom;html=1;verticalAlign=top;strokeWidth=1;dashed=0;shape=mxgraph.aws3d.application_server;fillColor=#ECECEC;strokeColor=#5E5E5E;aspect=fixed;rounded=1;shadow=0;comic=0;fontSize=12" parent="1" vertex="1">
          <mxGeometry x="1095" y="1130" width="123" height="124" as="geometry" />
        </mxCell>
        <mxCell id="1a8abee3a6cfdf20-16" value="" style="verticalLabelPosition=bottom;html=1;verticalAlign=top;strokeWidth=1;dashed=0;shape=mxgraph.aws3d.application_server;fillColor=#ECECEC;strokeColor=#5E5E5E;aspect=fixed;rounded=1;shadow=0;comic=0;fontSize=12" parent="1" vertex="1">
          <mxGeometry x="1025" y="1170" width="123" height="124" as="geometry" />
        </mxCell>
        <mxCell id="1a8abee3a6cfdf20-17" value="" style="verticalLabelPosition=bottom;html=1;verticalAlign=top;strokeWidth=1;dashed=0;shape=mxgraph.aws3d.application_server;fillColor=#ECECEC;strokeColor=#5E5E5E;aspect=fixed;rounded=1;shadow=0;comic=0;fontSize=12" parent="1" vertex="1">
          <mxGeometry x="1165" y="1170" width="123" height="124" as="geometry" />
        </mxCell>
        <mxCell id="1a8abee3a6cfdf20-18" value="" style="verticalLabelPosition=bottom;html=1;verticalAlign=top;strokeWidth=1;dashed=0;shape=mxgraph.aws3d.application_server;fillColor=#ECECEC;strokeColor=#5E5E5E;aspect=fixed;rounded=1;shadow=0;comic=0;fontSize=12" parent="1" vertex="1">
          <mxGeometry x="1095" y="1210" width="123" height="124" as="geometry" />
        </mxCell>
        <mxCell id="1a8abee3a6cfdf20-19" value="" style="verticalLabelPosition=bottom;html=1;verticalAlign=top;strokeWidth=1;dashed=0;shape=mxgraph.aws3d.elasticBeanstalk;fillColor=#ECECEC;strokeColor=#5E5E5E;aspect=fixed;rounded=1;shadow=0;comic=0;fontSize=12" parent="1" vertex="1">
          <mxGeometry x="1352" y="1333" width="182" height="140" as="geometry" />
        </mxCell>
        <mxCell id="1a8abee3a6cfdf20-20" value="" style="verticalLabelPosition=bottom;html=1;verticalAlign=top;strokeWidth=1;dashed=0;shape=mxgraph.aws3d.simpleDb2;fillColor=#004C99;strokeColor=#99CCFF;aspect=fixed;rounded=1;shadow=0;comic=0;fontSize=12" parent="1" vertex="1">
          <mxGeometry x="1662" y="1129" width="181.5" height="192.6" as="geometry" />
        </mxCell>
        <mxCell id="1a8abee3a6cfdf20-22" value="" style="verticalLabelPosition=bottom;html=1;verticalAlign=top;strokeWidth=1;dashed=0;shape=mxgraph.aws3d.dataCenter;fillColor=#ffffff;strokeColor=#5E5E5E;aspect=fixed;rounded=1;shadow=0;comic=0;fontSize=12" parent="1" vertex="1">
          <mxGeometry x="1386" y="972" width="123" height="142" as="geometry" />
        </mxCell>
        <mxCell id="1a8abee3a6cfdf20-23" value="" style="verticalLabelPosition=bottom;html=1;verticalAlign=top;strokeWidth=1;dashed=0;shape=mxgraph.aws3d.application2;fillColor=#86E83A;strokeColor=#B0F373;aspect=fixed;rounded=1;shadow=0;comic=0;fontSize=12" parent="1" vertex="1">
          <mxGeometry x="1417" y="975" width="62" height="53" as="geometry" />
        </mxCell>
        <mxCell id="1a8abee3a6cfdf20-25" value="" style="verticalLabelPosition=bottom;html=1;verticalAlign=top;strokeWidth=1;dashed=0;shape=mxgraph.aws3d.arrowhead;aspect=fixed;rounded=1;shadow=0;comic=0;fillColor=none;fontFamily=Verdana;fontSize=12;fontColor=#000000;flipV=1;" parent="1" vertex="1">
          <mxGeometry x="341" y="1291" width="39" height="23" as="geometry" />
        </mxCell>
        <mxCell id="1a8abee3a6cfdf20-27" value="" style="verticalLabelPosition=bottom;html=1;verticalAlign=top;strokeWidth=1;dashed=0;shape=mxgraph.aws3d.arrowhead;aspect=fixed;rounded=1;shadow=0;comic=0;fillColor=none;fontFamily=Verdana;fontSize=12;fontColor=#000000;flipV=1;" parent="1" vertex="1">
          <mxGeometry x="401" y="1328" width="39" height="23" as="geometry" />
        </mxCell>
        <mxCell id="1a8abee3a6cfdf20-1" value="" style="verticalLabelPosition=bottom;html=1;verticalAlign=top;strokeWidth=1;dashed=0;shape=mxgraph.aws3d.secureConnection;fillColor=#000000;strokeColor=#ffffff;aspect=fixed;rounded=1;shadow=0;comic=0;fontSize=12" parent="1" vertex="1">
          <mxGeometry x="203" y="1068" width="56.99999999999999" height="34" as="geometry" />
        </mxCell>
        <mxCell id="1a8abee3a6cfdf20-29" value="" style="verticalLabelPosition=bottom;html=1;verticalAlign=top;strokeWidth=1;dashed=0;shape=mxgraph.aws3d.dashedEdgeDouble;fillColor=#000000;aspect=fixed;rounded=1;shadow=0;comic=0;fontFamily=Verdana;fontSize=12;flipV=1;" parent="1" vertex="1">
          <mxGeometry x="434" y="920" width="87" height="50" as="geometry" />
        </mxCell>
        <mxCell id="1a8abee3a6cfdf20-30" value="" style="verticalLabelPosition=bottom;html=1;verticalAlign=top;strokeWidth=1;dashed=0;shape=mxgraph.aws3d.dashedEdgeDouble;fillColor=#000000;aspect=fixed;rounded=1;shadow=0;comic=0;fontFamily=Verdana;fontSize=12;flipV=1;" parent="1" vertex="1">
          <mxGeometry x="689" y="777" width="87" height="50" as="geometry" />
        </mxCell>
        <mxCell id="1a8abee3a6cfdf20-33" value="" style="verticalLabelPosition=bottom;html=1;verticalAlign=top;strokeWidth=1;dashed=0;shape=mxgraph.aws3d.arrowSE;fillColor=#000000;aspect=fixed;rounded=1;shadow=0;comic=0;fontFamily=Verdana;fontSize=12;" parent="1" vertex="1">
          <mxGeometry x="417" y="788" width="88" height="50" as="geometry" />
        </mxCell>
        <mxCell id="1a8abee3a6cfdf20-34" value="" style="verticalLabelPosition=bottom;html=1;verticalAlign=top;strokeWidth=1;dashed=0;shape=mxgraph.aws3d.arrowSW;fillColor=#000000;aspect=fixed;rounded=1;shadow=0;comic=0;fontFamily=Verdana;fontSize=12;" parent="1" vertex="1">
          <mxGeometry x="432" y="478" width="362" height="207" as="geometry" />
        </mxCell>
        <mxCell id="1a8abee3a6cfdf20-35" value="" style="verticalLabelPosition=bottom;html=1;verticalAlign=top;strokeWidth=1;dashed=0;shape=mxgraph.aws3d.arrowSE;fillColor=#000000;aspect=fixed;rounded=1;shadow=0;comic=0;fontFamily=Verdana;fontSize=12" parent="1" vertex="1">
          <mxGeometry x="1295" y="993" width="57" height="33" as="geometry" />
        </mxCell>
        <mxCell id="1a8abee3a6cfdf20-36" value="" style="verticalLabelPosition=bottom;html=1;verticalAlign=top;strokeWidth=1;dashed=0;shape=mxgraph.aws3d.arrowSW;fillColor=#000000;aspect=fixed;rounded=1;shadow=0;comic=0;fontFamily=Verdana;fontSize=12" parent="1" vertex="1">
          <mxGeometry x="1522" y="922" width="195" height="110" as="geometry" />
        </mxCell>
        <mxCell id="1a8abee3a6cfdf20-37" value="" style="verticalLabelPosition=bottom;html=1;verticalAlign=top;strokeWidth=1;dashed=0;shape=mxgraph.aws3d.arrowSW;fillColor=#000000;aspect=fixed;rounded=1;shadow=0;comic=0;fontFamily=Verdana;fontSize=12" parent="1" vertex="1">
          <mxGeometry x="1276" y="1105" width="119" height="68" as="geometry" />
        </mxCell>
        <mxCell id="1a8abee3a6cfdf20-39" value="" style="verticalLabelPosition=bottom;html=1;verticalAlign=top;strokeWidth=1;dashed=0;shape=mxgraph.aws3d.arrowSE;fillColor=#000000;aspect=fixed;rounded=1;shadow=0;comic=0;fontFamily=Verdana;fontSize=12" parent="1" vertex="1">
          <mxGeometry x="1250" y="1314" width="102" height="58" as="geometry" />
        </mxCell>
        <mxCell id="d5ac148becb70bc-1" value="" style="verticalLabelPosition=bottom;html=1;verticalAlign=top;strokeWidth=1;dashed=0;shape=mxgraph.aws3d.arrowSE;fillColor=#000000;aspect=fixed;rounded=1;shadow=0;comic=0;fontFamily=Verdana;fontSize=12" parent="1" vertex="1">
          <mxGeometry x="1509" y="1458" width="143" height="81" as="geometry" />
        </mxCell>
        <mxCell id="d5ac148becb70bc-2" value="" style="verticalLabelPosition=bottom;html=1;verticalAlign=top;strokeWidth=1;dashed=0;shape=mxgraph.aws3d.snapshot;fillColor=#4286c5;strokeColor=#57A2D8;aspect=fixed;rounded=1;shadow=0;comic=0;fontFamily=Verdana;fontSize=12" parent="1" vertex="1">
          <mxGeometry x="1942" y="1408" width="92" height="60" as="geometry" />
        </mxCell>
        <mxCell id="d5ac148becb70bc-3" value="" style="verticalLabelPosition=bottom;html=1;verticalAlign=top;strokeWidth=1;dashed=0;shape=mxgraph.aws3d.rdsMaster;fillColor=#ECECEC;strokeColor=#5E5E5E;aspect=fixed;rounded=1;shadow=0;comic=0;fontFamily=Verdana;fontSize=12" parent="1" vertex="1">
          <mxGeometry x="1662" y="1492" width="123" height="133" as="geometry" />
        </mxCell>
        <mxCell id="d5ac148becb70bc-4" value="" style="verticalLabelPosition=bottom;html=1;verticalAlign=top;strokeWidth=1;dashed=0;shape=mxgraph.aws3d.arrowSW;fillColor=#000000;aspect=fixed;rounded=1;shadow=0;comic=0;fontFamily=Verdana;fontSize=12" parent="1" vertex="1">
          <mxGeometry x="1792" y="1458" width="171" height="97" as="geometry" />
        </mxCell>
        <mxCell id="d5ac148becb70bc-5" value="" style="verticalLabelPosition=bottom;html=1;verticalAlign=top;strokeWidth=1;dashed=0;shape=mxgraph.aws3d.arrowSE;fillColor=#000000;aspect=fixed;rounded=1;shadow=0;comic=0;fontFamily=Verdana;fontSize=12" parent="1" vertex="1">
          <mxGeometry x="1832" y="1317" width="134" height="76" as="geometry" />
        </mxCell>
        <mxCell id="d5ac148becb70bc-6" value="" style="verticalLabelPosition=bottom;html=1;verticalAlign=top;strokeWidth=1;dashed=0;shape=mxgraph.aws3d.arrowSW;fillColor=#000000;aspect=fixed;rounded=1;shadow=0;comic=0;fontFamily=Verdana;fontSize=12" parent="1" vertex="1">
          <mxGeometry x="2092" y="1241" width="246" height="140" as="geometry" />
        </mxCell>
        <mxCell id="d5ac148becb70bc-8" value="" style="verticalLabelPosition=bottom;html=1;verticalAlign=top;strokeWidth=1;dashed=0;shape=mxgraph.aws3d.dashedArrowlessEdge;aspect=fixed;rounded=1;shadow=0;comic=0;fontFamily=Verdana;fontSize=12" parent="1" vertex="1">
          <mxGeometry x="840" y="564" width="1432" height="816" as="geometry" />
        </mxCell>
        <mxCell id="d5ac148becb70bc-9" value="" style="verticalLabelPosition=bottom;html=1;verticalAlign=top;strokeWidth=1;dashed=0;shape=mxgraph.aws3d.dashedArrowlessEdge;aspect=fixed;rounded=1;shadow=0;comic=0;fontFamily=Verdana;fontSize=12" parent="1" vertex="1">
          <mxGeometry x="592" y="705" width="1432" height="816" as="geometry" />
        </mxCell>
        <mxCell id="d5ac148becb70bc-10" value="" style="verticalLabelPosition=bottom;html=1;verticalAlign=top;strokeWidth=1;dashed=0;shape=mxgraph.aws3d.dashedArrowlessEdge;fillColor=#000000;aspect=fixed;rounded=1;shadow=0;comic=0;fontFamily=Verdana;fontSize=12;fontColor=#000000;flipV=1;" parent="1" vertex="1">
          <mxGeometry x="592" y="564" width="248" height="141" as="geometry" />
        </mxCell>
        <mxCell id="d5ac148becb70bc-12" value="" style="verticalLabelPosition=bottom;html=1;verticalAlign=top;strokeWidth=1;dashed=0;shape=mxgraph.aws3d.dashedArrowlessEdge;aspect=fixed;rounded=1;shadow=0;comic=0;fontFamily=Verdana;fontSize=12;flipV=1;" parent="1" vertex="1">
          <mxGeometry x="2023" y="1378" width="249" height="142" as="geometry" />
        </mxCell>
        <mxCell id="1a8abee3a6cfdf20-2" value="" style="verticalLabelPosition=bottom;html=1;verticalAlign=top;strokeWidth=1;dashed=0;shape=mxgraph.aws3d.secureConnection;fillColor=#000000;strokeColor=#ffffff;aspect=fixed;rounded=1;shadow=0;comic=0;fontSize=12" parent="1" vertex="1">
          <mxGeometry x="911" y="1358" width="56.99999999999999" height="34" as="geometry" />
        </mxCell>
        <mxCell id="d5ac148becb70bc-14" value="" style="edgeStyle=isometricEdgeStyle;endArrow=none;html=1;labelBackgroundColor=none;strokeWidth=5;fontFamily=Verdana;fontSize=12" parent="1" edge="1">
          <mxGeometry width="50" height="100" relative="1" as="geometry">
            <mxPoint x="462" y="1368" as="sourcePoint" />
            <mxPoint x="1602" y="1668" as="targetPoint" />
            <Array as="points">
              <mxPoint x="902" y="1558" />
            </Array>
          </mxGeometry>
        </mxCell>
        <mxCell id="d5ac148becb70bc-15" value="" style="verticalLabelPosition=bottom;html=1;verticalAlign=top;strokeWidth=1;dashed=0;shape=mxgraph.aws3d.arrowhead;aspect=fixed;rounded=1;shadow=0;comic=0;fillColor=none;fontFamily=Verdana;fontSize=12;fontColor=#000000;flipV=1;" parent="1" vertex="1">
          <mxGeometry x="443" y="1356" width="39" height="23" as="geometry" />
        </mxCell>
        <mxCell id="d5ac148becb70bc-16" value="" style="verticalLabelPosition=bottom;html=1;verticalAlign=top;strokeWidth=1;dashed=0;shape=mxgraph.aws3d.secureConnection;fillColor=#000000;strokeColor=#ffffff;aspect=fixed;rounded=1;shadow=0;comic=0;fontSize=12" parent="1" vertex="1">
          <mxGeometry x="1538" y="1668" width="56.99999999999999" height="34" as="geometry" />
        </mxCell>
        <mxCell id="JoSzz7oa9EcV52r_XlL8-2" value="file:///home/zuev/Downloads/vmware-stencils-main/visio/vmw_colors.vssx" style="text;whiteSpace=wrap;html=1;" vertex="1" parent="1">
          <mxGeometry x="1790" y="1920" width="420" height="30" as="geometry" />
        </mxCell>
      </root>
    </mxGraphModel>
  </diagram>
  <diagram id="3l03w-zGlH_5euxsf6lz" name="Page-2">
    <mxGraphModel dx="1382" dy="745" grid="1" gridSize="10" guides="1" tooltips="1" connect="1" arrows="1" fold="1" page="1" pageScale="1" pageWidth="850" pageHeight="1100" math="0" shadow="0">
      <root>
        <mxCell id="VNDWo4RkkPxamhbVpxff-0" />
        <mxCell id="VNDWo4RkkPxamhbVpxff-1" parent="VNDWo4RkkPxamhbVpxff-0" />
        <mxCell id="VNDWo4RkkPxamhbVpxff-179" style="edgeStyle=orthogonalEdgeStyle;rounded=0;orthogonalLoop=1;jettySize=auto;html=1;exitX=1;exitY=0.25;exitDx=0;exitDy=0;entryX=0;entryY=0.75;entryDx=0;entryDy=0;fontSize=16;" edge="1" parent="VNDWo4RkkPxamhbVpxff-1" source="VNDWo4RkkPxamhbVpxff-2" target="VNDWo4RkkPxamhbVpxff-165">
          <mxGeometry relative="1" as="geometry" />
        </mxCell>
        <mxCell id="VNDWo4RkkPxamhbVpxff-2" style="vsdxID=5;fillColor=none;gradientColor=none;labelBackgroundColor=none;rounded=0;strokeColor=none;html=1;whiteSpace=wrap;" vertex="1" parent="VNDWo4RkkPxamhbVpxff-1">
          <mxGeometry x="80" y="570" width="106" height="80" as="geometry" />
        </mxCell>
        <mxCell id="VNDWo4RkkPxamhbVpxff-3" style="vsdxID=6;fillColor=none;gradientColor=none;shape=stencil(XY5LDoAgDERP0z3SI6DegwQQIgIB/N1eSBcadzPtvE4BRbEyaeCs1BxXfTpVLeAInLtgdXa1KcAJUJiY9ZLjHhT5JHuyqy0e/cJFHOsEZze5gZGfKdrEyxnnPdV+9/+eNqIfcXoA);strokeColor=#717074;spacingTop=-3;spacingBottom=-3;spacingLeft=-3;spacingRight=-3;labelBackgroundColor=none;rounded=0;html=1;whiteSpace=wrap;" vertex="1" parent="VNDWo4RkkPxamhbVpxff-2">
          <mxGeometry x="85.48387096774194" y="77.14285714285714" as="geometry" />
        </mxCell>
        <mxCell id="VNDWo4RkkPxamhbVpxff-4" style="vsdxID=7;fillColor=#000000;gradientColor=none;shape=stencil(lZbJcsMgDIafxlcNSGw6d3mPTpM0nqZJx02XvH1JsbGFHZLeDP7FB9qgobuP7dP7ukH1cewOr+vvdnXcNnTfILb77bprj/GroYeG7jaHbv3SHT73qzR+fzorz19vh6/zCj/JLjAwnq1QndKMVupv/Jjku3Y/kTOgqamfP7u0uk6/DQyLa6lXP5gm+uGpH7IGCr2CpKIfBg2Kakwlid6ANpKpwQWJdQHYS+y49X7CWbBYA2sFKki4DeCwgNuMGuiWwFhJj3sMVvJNAAyXQ4MO1GAxdcSimEwm9uK8heXFGYwWeoegfHU3gaUBgeea+1CB9tJ907AM7otxYem+aYSHJAHT/C9rRgtdWmS2B+skOiB4dw2dNbeVVIixqcR5XrEzg/JsrPIu8+myTT7dVIVzFc1Vlw54C3/u3SX+RFXhX42tgVBk1kJX8DHZisxaaAseAb3kzzJbBswxeFlrV2rHOSBZO/XijGfxUq/BY0XvgWQx22oTDwSapfuszbU6uC/mpSq7qgIqCpMNcBE+54cKuJQ+DLpIn6WmroqrJDhAXdB9zufTuKFQTR62UDR1dmCthDMNvTnjx5uOsoNy4dINd+0/r+ar8vgxvgI27W6XHhHT/+WrIU6lFwc9/AI=);strokeColor=none;spacingTop=-3;spacingBottom=-3;spacingLeft=-3;spacingRight=-3;labelBackgroundColor=none;rounded=0;html=1;whiteSpace=wrap;" vertex="1" parent="VNDWo4RkkPxamhbVpxff-2">
          <mxGeometry x="30.774193548387096" y="62.85714285714286" width="41.03225806451613" height="17.142857142857142" as="geometry" />
        </mxCell>
        <mxCell id="VNDWo4RkkPxamhbVpxff-5" style="vsdxID=8;fillColor=#000000;gradientColor=none;shape=stencil(lZXbcoMgEIafhtudhQWN12n6HpnGVKdWMyZpk7evFlRYPLR3uP6/fHtABO2vxfGSC4XXW9t85N/l6VYIehFKlXWRt+WtWwk6CNqfmzZ/b5t7fbLPl2Ov7FefzVf/hYf1ZRrMrncpfNqIATS/gVerf7u31iCdw4DJnEMyCz6UEyWQSCdyoQRM6kQUi1xoB7jzN6/K2of1DC4iIVOrtJ5lCBFoYrgGMgpxu8JozXj1sNnIO6lmgc2QzsjL9ZxXA6YM1wNxbASUMVovJ4pEtFCsENYz2EA6jMYCq2eQQ48xCVG9fFQ0LBRVieZnkI3B5sxuzTj+o2W4VgIFxNqFYf4YJk9g2FBhmDmveQiHAVmmQK8OP4Zo3VnQrD0ev4tIRLHRnUGy1JzxkMzKoxOaQkIh6MTAoZ4qToW4hhbKE4JO+vlfD+ec9DLqpYpTCfvv/UIMq+Z6Lf8+uBvibjHdAeeyquwV4r/nd0YXsvcNHX4A);strokeColor=none;spacingTop=-3;spacingBottom=-3;spacingLeft=-3;spacingRight=-3;labelBackgroundColor=none;rounded=0;html=1;whiteSpace=wrap;" vertex="1" parent="VNDWo4RkkPxamhbVpxff-2">
          <mxGeometry width="106" height="57.142857142857146" as="geometry" />
        </mxCell>
        <mxCell id="VNDWo4RkkPxamhbVpxff-6" style="vsdxID=9;fillColor=#000000;gradientColor=none;shape=stencil(nZBLDoAgDERP0z3SIyjew0SURgSD+Lu9kMZoXLhwN9O+tukAlrNpJg1SzDH4QW/URgNYgZTkjA4UkwJUgGXng+6DX1zLfmoymdXo17xh5zmRJ6Q42BWCfc2oJfdAr+Yv+AP9Cb7OJ3H/2JG1HNGz/84klThPVCc=);strokeColor=none;spacingTop=-3;spacingBottom=-3;spacingLeft=-3;spacingRight=-3;labelBackgroundColor=none;rounded=0;html=1;whiteSpace=wrap;" vertex="1" parent="VNDWo4RkkPxamhbVpxff-2">
          <mxGeometry x="10.258064516129032" y="45.714285714285715" width="82.06451612903226" height="2.857142857142857" as="geometry" />
        </mxCell>
        <mxCell id="VNDWo4RkkPxamhbVpxff-7" style="vsdxID=5;fillColor=none;gradientColor=none;labelBackgroundColor=none;rounded=0;strokeColor=none;html=1;whiteSpace=wrap;" vertex="1" parent="VNDWo4RkkPxamhbVpxff-1">
          <mxGeometry x="434" y="320" width="90" height="96" as="geometry" />
        </mxCell>
        <mxCell id="VNDWo4RkkPxamhbVpxff-8" style="vsdxID=6;fillColor=#000000;gradientColor=none;shape=stencil(lVhJUsMwEHyNryntss4s/6AgEBchoUwA83sSbG09zhjfHNGWuns2mUbffOwe3reNEh+n/vi6/e6eTrtG3zZKdYfdtu9O56dG3zX65vnYb1/64+fhafz9/nBBXp7ejl+XHYbxvaA37vKSEj/jgvj7dT9i992hwGq/Udexj5/9uLGc0HlnWcLFoCaA2LQTYFpRcWHQBDKtuI1hCGZ4XLgOjjvNY1FNohbFaFAjaimaaBG1EM0qERW1FKQr5ERNLaQ4DWhspCeFqNllN3SNmPdOgdGARoIuby+RwMTIhZRcisjQBKPnnQGaARLWM5pIJXhWUmYXJXlQlCRGQY4IypCokNWT4bPFgBQzHJN4IBb/1Gk8oL+J4RoHKyz0nRqJuonb0EqcIVIM5rhzS1oclzsWcmcVeKliixck8k8VYWo9AfQURagrxL/aXWD5UXquJofcDLY7aCd8oUInXshraCXaYruzmNXaLHQ7zU0Vg1NlDXhBS4FH69OcdLUY0FJM5cr6/5UoSy4QcqamFoCaxQYXsOK4obfQE1aB627j8ebCtTGLHvH3HCuxVvCiY8hoU2CTIYNNGc4pg4PNtGzBBKRoWuw2ZwzmWVqJNC1MKysWCpWem/dUiYkh56I9NMUjZtYeRbIc4OR2R2JYkIjjnEQxRz7NcxJHyw90ckHxPFFJHPXE0ULMtNJKjKQiszBh5hMOCwjhM6GHkV2QyP5BynmachKJokVQvBJCjwGYKV8gask1yRJHLQTekg+V9M6Kc+FUhZWRVwZMr3yu4hoHaYQIR5qexLEgQdIrERVItCVxrFtWTbPFKGI7RJotbcLgpif9De+6nnQZbkqsGikL4PND/j5/7vb78fO+/Dt+z5+Xxv8F6Ltf);strokeColor=none;spacingTop=-3;spacingBottom=-3;spacingLeft=-3;spacingRight=-3;labelBackgroundColor=none;rounded=0;html=1;whiteSpace=wrap;" vertex="1" parent="VNDWo4RkkPxamhbVpxff-7">
          <mxGeometry width="90" height="96" as="geometry" />
        </mxCell>
        <mxCell id="VNDWo4RkkPxamhbVpxff-173" style="edgeStyle=orthogonalEdgeStyle;rounded=0;orthogonalLoop=1;jettySize=auto;html=1;exitX=1;exitY=0.5;exitDx=0;exitDy=0;fontSize=16;startArrow=none;" edge="1" parent="VNDWo4RkkPxamhbVpxff-1" source="VNDWo4RkkPxamhbVpxff-171" target="VNDWo4RkkPxamhbVpxff-165">
          <mxGeometry relative="1" as="geometry">
            <Array as="points">
              <mxPoint x="221" y="441" />
              <mxPoint x="221" y="520" />
            </Array>
          </mxGeometry>
        </mxCell>
        <mxCell id="VNDWo4RkkPxamhbVpxff-87" style="vsdxID=5;labelBackgroundColor=none;rounded=0;html=1;whiteSpace=wrap;glass=0;fillColor=none;strokeColor=none;" vertex="1" parent="VNDWo4RkkPxamhbVpxff-1">
          <mxGeometry x="60" y="360" width="60" height="100" as="geometry" />
        </mxCell>
        <mxCell id="VNDWo4RkkPxamhbVpxff-88" style="vsdxID=6;fillColor=#000000;gradientColor=none;shape=stencil(pVjZctswDPwavWJ4gcdzmvxHpnFqT1074zit+/elK1EhqQgkRm8yvUtgFxAPDfrhff/8thuUeL9ezj93fw4v1/2gvw1KHU773eVwjU+Dfhz0w+v5svtxOX+cXsbfb8935P3p1/n3fYbbyLMQ9J2kxN9xQAlA83/kacQfD6cMjx6M2kYwccSvE6wG7bYRpAPp1gkSgt+EDwG0XscrBGc2EhCCJSTXVePiG0Vr48suMg6w6goDQRGWOvBbCR4U0RWxacRWAp0SW3QHoWWrxpRkp0t8ggfNcolPoFNii+4gtGw1CJLlEp9Ar2FLl/gEOiW26A5CaetSdFz7qfdBO7BbCQhIrHtfpMQm0Cl1EFou2UC2d1yMldlIQLAs0XwCnVIHoeWSC2S3LkXzCXEXZonmE+iUOggtl3wg23spmk+IIxwJbDydUAeh9ChAKPeGdFj8+rSq0zmqE19PLzVQR1UEjQw8urSWJLwgJq8PbQRWcJIAw8mZZ3gLXd1WDPgyF1QgQ074/nEZGXLetDB1sKw54qamPg+QrhDTiFVzJ9z0AjSNOAuCjJ5R5NyuSpfB8xSnISlEGTtXrkvMSmhvQNoy9uesdZgUN89O15he0fG2g2XgaKatROfpqWVd1mUvKl69Be0WYRNaTRgsaMqQeFhDWToyU2ZDtAGLpSHegZKlITkq1aPehurwOUfOGtLQ3IXZiTIVBEGpdkFm1Fonyrmu8yuYzTwFi1dYUemPwXSlP0et6a9WmIzRaVgwgJVheSnUUpZaVHXdr7pbWu24FV92L1ow1Y4e2x3XA6CAUK7RzqcdofPi4AV4SURYpmTBE5tGvnZMLsTmJSLEBGypoXHC5bvUJsSHz69wr4fjcfyIl/9ff7WLQ+MXP/34Dw==);strokeColor=none;spacingTop=-3;spacingBottom=-3;spacingLeft=-3;spacingRight=-3;labelBackgroundColor=none;rounded=0;html=1;whiteSpace=wrap;" vertex="1" parent="VNDWo4RkkPxamhbVpxff-87">
          <mxGeometry width="60" height="70" as="geometry" />
        </mxCell>
        <mxCell id="VNDWo4RkkPxamhbVpxff-167" value="DNS-2" style="text;html=1;resizable=0;autosize=1;align=center;verticalAlign=middle;points=[];fillColor=none;strokeColor=none;rounded=0;dashed=1;fontSize=16;" vertex="1" parent="VNDWo4RkkPxamhbVpxff-87">
          <mxGeometry x="-2.1316282072803006e-14" y="80" width="60" height="20" as="geometry" />
        </mxCell>
        <mxCell id="VNDWo4RkkPxamhbVpxff-90" style="vsdxID=5;fillColor=none;gradientColor=none;labelBackgroundColor=none;rounded=0;strokeColor=none;html=1;whiteSpace=wrap;dashed=1;" vertex="1" parent="VNDWo4RkkPxamhbVpxff-1">
          <mxGeometry x="290" y="320" width="440" height="410" as="geometry" />
        </mxCell>
        <mxCell id="VNDWo4RkkPxamhbVpxff-91" style="vsdxID=6;fillColor=#000000;gradientColor=none;shape=stencil(pVpdc9w2DPw198ohCX4+p8n/yDRO7alrZxyndf99eXMSSe1K5Gn65iiglgCBxRK6i3z6+fj1x8PF6p/vb69/Pvzz9O398SK/Xax9enl8eHt6L39d5PNFPn1/fXv44+3118u3279/fL1aXv/66/Xv6xs+butMVPa6yOp/bw9iUPr25MvN/vdfb7cF5mZgrUrLiuVJTMoujz7sYpSq0fIkZmXyYiS3R+IrtqDRAbi07Rp+7wIlWYUpuDPVSKobUUbgTpPnNVgV3GmAFiXgdiZkrfzYbavcFjl4ZQLEPGDMfVISt+Dd6a2ByCrG4YE7BHdRZQRvRmsgyun6KbhVeeh555SpWRP9FrwLz7qdrFLYgkuqRut2ypuG4PUs180kpQHaWQx6b7R66dDv4pZ1Q2iHfrclDdwReGf0P8B9zdAVPCqDnlO6FSOIuYuY6iU63vTYz08vHR35VmJ1r8PkLNkLhFBOVTBOEQnBisoJ9oo7tSoMidBhjOqCLkYAa5WJU1gz9hhhjYoz2M7kCNYoO4T1BnMCadc3bra1uQQohSDI+c3oALksQeTuvQtUcHNohwQwh6YqNEkZQPaYXMXGIzaEe9vltjUQV9apmxz3RE+b1ECPGulRb3dnqBFPQYEZxSmBdIA+GMzK9APYaf+31AhTVCLgL7WDbKgdOIvZ0Izu5uT+vYdcU4yAkr0GZK3yMA9dQuSUV8kwQE6Ju0FAt1Ph8TQCF+oGO+CWWlHySgPXdWJzPXBUm9tSmKvTrZrtuvESWXUyruuCxmrkmDFKzNaxAAdqnMpDKck1W4pBQEQ70rGmdENu78hqY01D8n2HTTule8ynkok1xiLWY6vu3WlchchdYJqAAUlTAu7GScztS1PtCnWwlg5C4ZPdFNsm8Cwht+nbsRsG6IgP4x29UUij0k2MCrNJhrtvYr24OQzojgLaAZ9JL0FhzvLUQguQovigdAxdxK6XwmHdGpKbbUmF7owsG63gie5CCA5cmCCV5pu95+5kUCvyzcmgVhTlx8B4dSmlBqoJ5cGOZrLUoakcthGal89Z+215tlpr3WOomak4d5KFOH4vUYl06quPTkAwTwsJeOgvhu7spRQ9Hr6nIrGz4yfBXpoU3sk6o6ZfvCFwoIbptMJQl2lLGrinCu2M7geHCvWgVuabpWPy9R0fTW5AoIqU1iilDe41ROWGHEpM1iv0dXiF0GV7ARKErvhUFnC9mVURDCgd0F4s3g97ImdAucZZoj3M/XJ9zRaiShxdbsF+qDMMKcq2ZNAgeiMho7vB6Uz3wfFQd8HDSXAeE/Z5eijvQtkzD0jB8+jWtNtXWdsbc/TKmNFWxdAUmQe5llRT20WLEw3XKD2BI6bpDD0HBeQ1zAOV0I3uFl+T0oOBG9m3wfLdw8Fkqb37RFfwesc9HIpkP7k1BWqouUgcaKiB8jsnmv5H4sucVwGyz1oG4mS0Hli7M7agQmgnJCswCIk+gUSeQnSRatOWsyeQSPX352q37rZRQJcggjZykHdQN3pb45O0Pls2c/ttWeaTRZOxZDRRY+IJSjfaEjrXe6dWlC1WrY8+LKXgmi1OGWiGkW++fvKpMBLP5qL6QIvt1Gu3wzU7EHrmdaBvdTuDQh6w9OciZHRfqnYLlgdGmXRsz7mXlRvkdj719lmmnrPeVoFHLef12syP5l7E4DsKhZuHLzc1OBbPCqUaHYzVIcxn7UvtyVABRf4+XD8pt1ojOX+lYbjwca01oyNwEF/9W1uZo6Lp9idkJAd+U/86FdcUxtbzltNnQ510Q8KwpE3g1jRXExxmu6g0WJpv9Z/GBRwWNNn/BEr0gfZUVOmOD/SeFEHvj5DRUZRgs1MGOGtf/mi/Vfn+9Px8+6lL///425by6Pa7GPn8Hw==);strokeColor=none;spacingTop=-3;spacingBottom=-3;spacingLeft=-3;spacingRight=-3;labelBackgroundColor=none;rounded=0;html=1;whiteSpace=wrap;" vertex="1" parent="VNDWo4RkkPxamhbVpxff-90">
          <mxGeometry width="100.00000000000001" height="90" as="geometry" />
        </mxCell>
        <mxCell id="VNDWo4RkkPxamhbVpxff-165" value="" style="rounded=0;whiteSpace=wrap;html=1;dashed=1;fillColor=none;" vertex="1" parent="VNDWo4RkkPxamhbVpxff-90">
          <mxGeometry x="-49.35" y="-10" width="489.35" height="420" as="geometry" />
        </mxCell>
        <mxCell id="VNDWo4RkkPxamhbVpxff-92" style="vsdxID=5;fillColor=none;gradientColor=none;labelBackgroundColor=none;rounded=0;strokeColor=none;html=1;whiteSpace=wrap;dashed=1;" vertex="1" parent="VNDWo4RkkPxamhbVpxff-1">
          <mxGeometry x="409.5" y="595" width="141" height="95" as="geometry" />
        </mxCell>
        <mxCell id="VNDWo4RkkPxamhbVpxff-93" style="vsdxID=6;fillColor=#000000;gradientColor=none;shape=stencil(pVnbctw2DP2afcWQACmRz2nyH5nGqXfq2pmN0yZ/X+5IJEGApLSTt7V8oAOAuFIX+vD9+fO3pwua7++3t7+f/rt+eX++0B8XxOvr89Pt+p5+XejjhT58fbs9/XV7+/H6Zfv72+c78v7rn7d/72/4ucnFBeguhObX9sAHwO3Jpw3/cn1leG8h+EYgOoiOC/z547Yx2CJiMsf+KHpYw/boJ26PXATaH/1CjaIdFcAvO4oG/K3CDizODZT6MgkrRaq6FYQaRApEJ8kJMArytTgmkyOYRZCvEGxLbos6jHzxM3IDzgryCC625AaCsHwxsC6SfPEt+ZIeTU5pAZPt3o81ANnpMSW/yLCKYJdWWx4w+yNrTKusN4C21Ta9yYeDoC55YKVMYfdUzUKtY+Z3QCJOlPWtu9K/17Vxl3Sv1JdLWCFS1OUgVCDSoMHZKvLkGRHVPGZQo1CH35j+MK7v3hSH1cmquOqcZqjMXwvmKKfFWT1YYY/xbQVPCZnDbhdwKeqmFTmJRHEeVaZWGQuudQcHUQEFkTsOYcGxfTzb9oQMWZ2uwBrBtAKKQRrIRayUKQZyFGoUadTIwg5/cMrBTgR8SI1xPfRwQoWo+G2c8QeEVfQwZ0sOFH4skZbpDZig6F1o6SkCTjquT95pi5P1B/qmauqEv6xT+qYRYRUFgqPGI4LibxW26b3tTKMslAonERIKJ5lFHPA9sI89zFFUUHE6JiQZLw+4BEXlZ1pOUpgVEJKorsNOlJyHBdqixsag0u3xofnhngIzD/IwyVnj6hCFJTBLm0eNGjdwSS9q/CqnUmWf6mEreDHuJKODqNkJFeWJL2WqKz2MoUiiRhGXpyZW0ILsoLqD86wgbXyuKMk4P3YX9+8eUGCn2nbGM9Pq2hkMxVjIY4r6tK2aKmiVWXrgLrP0uIqYVkvu96KWEyPR4XEykXE0YWFiwRRE+WBWZ/J5rj6a28f4tnb4MllmfKo+k2PjkZDfYKa5yHfVsjSimC742osKRDpOqU8uKoerm9XAOlU5mIiVMjV3vVoqaxequctQZ3tVkgnSW7YM8Yzf6WHIydrh1GJZ8+EB+zu1i6HGmXaG/+jCJA2HezU7f2ESDFjhsM6FCUeNpyHFLxRW6XPkYCYx9q+vK9j4eBmIJGh4W6Paop70ne6KVg2OzIwa2vPU6liuM4uBUIPOkx8d0+/iRRVlI/neDdKaPZ/iTXF8dkeSQR23cornqBq3UfQ0xS/aBBan1jVxvnZwkfEUzVGoUVRQj26JZAFlYdRbYkItwl/OwUqK3kt+D34yg3IP7+cX8z56vu91Lgg7B9y5x+lculXU+QDr8Hcab4+fxTcN7G8dtqSpuY0v6WCpL5OwUqSoy0CoQfmGrdwH8uO10+FyiWDlJYQDcY+dXlxuCsYrItPx7BVEx3adWh3bdWadIFct96h0PSwgiqO6w0orSphsMGkTMC3D0digGFKGx0l9Xwho/T2GAxtOCKQf9UPT1+vLy/adiv9ffphKj7aPWvTxfw==);strokeColor=none;spacingTop=-3;spacingBottom=-3;spacingLeft=-3;spacingRight=-3;labelBackgroundColor=none;rounded=0;html=1;whiteSpace=wrap;" vertex="1" parent="VNDWo4RkkPxamhbVpxff-92">
          <mxGeometry width="141" height="95" as="geometry" />
        </mxCell>
        <mxCell id="VNDWo4RkkPxamhbVpxff-94" value="&lt;br&gt;" style="outlineConnect=0;fontColor=#232F3E;gradientColor=none;strokeColor=#232F3E;fillColor=#ffffff;dashed=0;verticalLabelPosition=bottom;verticalAlign=top;align=center;html=1;fontSize=12;fontStyle=0;aspect=fixed;shape=mxgraph.aws4.resourceIcon;resIcon=mxgraph.aws4.stack;" vertex="1" parent="VNDWo4RkkPxamhbVpxff-1">
          <mxGeometry x="590" y="330" width="80" height="80" as="geometry" />
        </mxCell>
        <mxCell id="VNDWo4RkkPxamhbVpxff-96" value="&lt;font style=&quot;font-size: 18px&quot;&gt;NSX-T&lt;/font&gt;" style="text;html=1;resizable=0;autosize=1;align=center;verticalAlign=middle;points=[];fillColor=none;strokeColor=none;rounded=0;dashed=1;" vertex="1" parent="VNDWo4RkkPxamhbVpxff-1">
          <mxGeometry x="305" y="420" width="70" height="20" as="geometry" />
        </mxCell>
        <mxCell id="VNDWo4RkkPxamhbVpxff-97" value="&lt;font style=&quot;font-size: 16px&quot;&gt;VCSA&lt;/font&gt;" style="text;html=1;resizable=0;autosize=1;align=center;verticalAlign=middle;points=[];fillColor=none;strokeColor=none;rounded=0;dashed=1;" vertex="1" parent="VNDWo4RkkPxamhbVpxff-1">
          <mxGeometry x="440" y="420" width="60" height="20" as="geometry" />
        </mxCell>
        <mxCell id="VNDWo4RkkPxamhbVpxff-99" value="&lt;font style=&quot;font-size: 16px&quot;&gt;VIO&lt;/font&gt;" style="text;html=1;resizable=0;autosize=1;align=center;verticalAlign=middle;points=[];fillColor=none;strokeColor=none;rounded=0;dashed=1;" vertex="1" parent="VNDWo4RkkPxamhbVpxff-1">
          <mxGeometry x="610" y="420" width="40" height="20" as="geometry" />
        </mxCell>
        <mxCell id="VNDWo4RkkPxamhbVpxff-100" value="&lt;font style=&quot;font-size: 16px&quot;&gt;vSAN&lt;/font&gt;" style="text;html=1;resizable=0;autosize=1;align=center;verticalAlign=middle;points=[];fillColor=none;strokeColor=none;rounded=0;dashed=1;" vertex="1" parent="VNDWo4RkkPxamhbVpxff-1">
          <mxGeometry x="450" y="700" width="60" height="20" as="geometry" />
        </mxCell>
        <mxCell id="VNDWo4RkkPxamhbVpxff-102" style="vsdxID=5;fillColor=none;gradientColor=none;labelBackgroundColor=none;rounded=0;strokeColor=none;html=1;whiteSpace=wrap;dashed=1;" vertex="1" parent="VNDWo4RkkPxamhbVpxff-1">
          <mxGeometry x="320" y="480" width="140" height="80" as="geometry" />
        </mxCell>
        <mxCell id="VNDWo4RkkPxamhbVpxff-103" style="vsdxID=6;fillColor=#000000;gradientColor=none;shape=stencil(vZLdDsIgDIWfprcEaJzues73WDImRISFMX/eXpAYHdEl08S708PXliYHsBpk0wvgdPDOHsRZtV4CboFzZaRwygcFWANWnXVi7+xo2lT3TSSjOtpTnHBJfWVBCha7OL0mh3Gyuhu7xGtlZvnNeo5HguUv+NLf5Pz0WkbphKafR38JPja8RfP1i+A/oEE8c9IprVPMXt/zXAUrZRLrGw==);strokeColor=none;spacingTop=-3;spacingBottom=-3;spacingLeft=-3;spacingRight=-3;labelBackgroundColor=none;rounded=0;html=1;whiteSpace=wrap;" vertex="1" parent="VNDWo4RkkPxamhbVpxff-102">
          <mxGeometry width="140" height="24.615384615384617" as="geometry" />
        </mxCell>
        <mxCell id="VNDWo4RkkPxamhbVpxff-104" style="vsdxID=7;fillColor=#000000;gradientColor=none;shape=stencil(nZBLDoAgDERP0z3SIyjew0SURgSD+Lu9kMZoXLhwN9O+tukAlrNpJg1SzDH4QW/URgNYgZTkjA4UkwJUgGXng+6DX1zLfmoymdXo17xh5zmRJ6Q42BWCfc2oJfdAr+Yv+AP9Cb7OJ3H/2JG1HNGz/84klThPVCc=);strokeColor=none;spacingTop=-3;spacingBottom=-3;spacingLeft=-3;spacingRight=-3;labelBackgroundColor=none;rounded=0;html=1;whiteSpace=wrap;" vertex="1" parent="VNDWo4RkkPxamhbVpxff-102">
          <mxGeometry x="13.54838709677419" y="6.153846153846154" width="4.516129032258064" height="9.23076923076923" as="geometry" />
        </mxCell>
        <mxCell id="VNDWo4RkkPxamhbVpxff-105" style="vsdxID=8;fillColor=#000000;gradientColor=none;shape=stencil(nZBLDoAgDERP0z3SIyjew0SURgSD+Lu9kMZoXLhwN9O+tukAlrNpJg1SzDH4QW/URgNYgZTkjA4UkwJUgGXng+6DX1zLfmoymdXo17xh5zmRJ6Q42BWCfc2oJfdAr+Yv+AP9Cb7OJ3H/2JG1HNGz/84klThPVCc=);strokeColor=none;spacingTop=-3;spacingBottom=-3;spacingLeft=-3;spacingRight=-3;labelBackgroundColor=none;rounded=0;html=1;whiteSpace=wrap;" vertex="1" parent="VNDWo4RkkPxamhbVpxff-102">
          <mxGeometry x="18.064516129032256" y="6.153846153846154" width="4.516129032258064" height="9.23076923076923" as="geometry" />
        </mxCell>
        <mxCell id="VNDWo4RkkPxamhbVpxff-106" style="vsdxID=9;fillColor=#000000;gradientColor=none;shape=stencil(nZBLDoAgDERP0z3SIyjew0SURgSD+Lu9kMZoXLhwN9O+tukAlrNpJg1SzDH4QW/URgNYgZTkjA4UkwJUgGXng+6DX1zLfmoymdXo17xh5zmRJ6Q42BWCfc2oJfdAr+Yv+AP9Cb7OJ3H/2JG1HNGz/84klThPVCc=);strokeColor=none;spacingTop=-3;spacingBottom=-3;spacingLeft=-3;spacingRight=-3;labelBackgroundColor=none;rounded=0;html=1;whiteSpace=wrap;" vertex="1" parent="VNDWo4RkkPxamhbVpxff-102">
          <mxGeometry x="27.09677419354838" y="6.153846153846154" width="4.516129032258064" height="9.23076923076923" as="geometry" />
        </mxCell>
        <mxCell id="VNDWo4RkkPxamhbVpxff-107" style="vsdxID=10;fillColor=#000000;gradientColor=none;shape=stencil(nZBLDoAgDERP0z3SIyjew0SURgSD+Lu9kMZoXLhwN9O+tukAlrNpJg1SzDH4QW/URgNYgZTkjA4UkwJUgGXng+6DX1zLfmoymdXo17xh5zmRJ6Q42BWCfc2oJfdAr+Yv+AP9Cb7OJ3H/2JG1HNGz/84klThPVCc=);strokeColor=none;spacingTop=-3;spacingBottom=-3;spacingLeft=-3;spacingRight=-3;labelBackgroundColor=none;rounded=0;html=1;whiteSpace=wrap;" vertex="1" parent="VNDWo4RkkPxamhbVpxff-102">
          <mxGeometry x="36.12903225806451" y="6.153846153846154" width="4.516129032258064" height="9.23076923076923" as="geometry" />
        </mxCell>
        <mxCell id="VNDWo4RkkPxamhbVpxff-108" style="vsdxID=11;fillColor=#000000;gradientColor=none;shape=stencil(vVHLDsIgEPwajiQI6RfU+h8bu22JCGRB2/69kG1iazx58DazM/vIjjBtmiCi0CplCjecbZ8nYc5Ca+snJJsLEqYTph0C4Ujh4XvmEaqzont41gkL96naodXKrGF6YSfQtUi0OXXDVlqPfJNP6usotUhYbJIUMmQb/GGrAxpRljVycDBuc1hKM2LclX8/7H9nFfB+82Cd45T2+mcspcSRmu4F);strokeColor=none;spacingTop=-3;spacingBottom=-3;spacingLeft=-3;spacingRight=-3;labelBackgroundColor=none;rounded=0;html=1;whiteSpace=wrap;" vertex="1" parent="VNDWo4RkkPxamhbVpxff-102">
          <mxGeometry x="117.41935483870967" y="9.23076923076923" width="4.516129032258064" height="3.076923076923077" as="geometry" />
        </mxCell>
        <mxCell id="VNDWo4RkkPxamhbVpxff-109" style="vsdxID=12;fillColor=#000000;gradientColor=none;shape=stencil(vZLdDsIgDIWfprcEaJzues73WDImRISFMX/eXpAYHdEl08S708PXliYHsBpk0wvgdPDOHsRZtV4CboFzZaRwygcFWANWnXVi7+xo2lT3TSSjOtpTnHBJfWVBCha7OL0mh3Gyuhu7xGtlZvnNeo5HguUv+NLf5Pz0WkbphKafR38JPja8RfP1i+A/oEE8c9IprVPMXt/zXAUrZRLrGw==);strokeColor=none;spacingTop=-3;spacingBottom=-3;spacingLeft=-3;spacingRight=-3;labelBackgroundColor=none;rounded=0;html=1;whiteSpace=wrap;" vertex="1" parent="VNDWo4RkkPxamhbVpxff-102">
          <mxGeometry y="27.692307692307693" width="140" height="24.615384615384617" as="geometry" />
        </mxCell>
        <mxCell id="VNDWo4RkkPxamhbVpxff-110" style="vsdxID=13;fillColor=#000000;gradientColor=none;shape=stencil(nZBLDoAgDERP0z3SIyjew0SURgSD+Lu9kMZoXLhwN9O+tukAlrNpJg1SzDH4QW/URgNYgZTkjA4UkwJUgGXng+6DX1zLfmoymdXo17xh5zmRJ6Q42BWCfc2oJfdAr+Yv+AP9Cb7OJ3H/2JG1HNGz/84klThPVCc=);strokeColor=none;spacingTop=-3;spacingBottom=-3;spacingLeft=-3;spacingRight=-3;labelBackgroundColor=none;rounded=0;html=1;whiteSpace=wrap;" vertex="1" parent="VNDWo4RkkPxamhbVpxff-102">
          <mxGeometry x="13.54838709677419" y="33.84615384615385" width="4.516129032258064" height="9.23076923076923" as="geometry" />
        </mxCell>
        <mxCell id="VNDWo4RkkPxamhbVpxff-111" style="vsdxID=14;fillColor=#000000;gradientColor=none;shape=stencil(nZBLDoAgDERP0z3SIyjew0SURgSD+Lu9kMZoXLhwN9O+tukAlrNpJg1SzDH4QW/URgNYgZTkjA4UkwJUgGXng+6DX1zLfmoymdXo17xh5zmRJ6Q42BWCfc2oJfdAr+Yv+AP9Cb7OJ3H/2JG1HNGz/84klThPVCc=);strokeColor=none;spacingTop=-3;spacingBottom=-3;spacingLeft=-3;spacingRight=-3;labelBackgroundColor=none;rounded=0;html=1;whiteSpace=wrap;" vertex="1" parent="VNDWo4RkkPxamhbVpxff-102">
          <mxGeometry x="18.064516129032256" y="33.84615384615385" width="4.516129032258064" height="9.23076923076923" as="geometry" />
        </mxCell>
        <mxCell id="VNDWo4RkkPxamhbVpxff-112" style="vsdxID=15;fillColor=#000000;gradientColor=none;shape=stencil(nZBLDoAgDERP0z3SIyjew0SURgSD+Lu9kMZoXLhwN9O+tukAlrNpJg1SzDH4QW/URgNYgZTkjA4UkwJUgGXng+6DX1zLfmoymdXo17xh5zmRJ6Q42BWCfc2oJfdAr+Yv+AP9Cb7OJ3H/2JG1HNGz/84klThPVCc=);strokeColor=none;spacingTop=-3;spacingBottom=-3;spacingLeft=-3;spacingRight=-3;labelBackgroundColor=none;rounded=0;html=1;whiteSpace=wrap;" vertex="1" parent="VNDWo4RkkPxamhbVpxff-102">
          <mxGeometry x="27.09677419354838" y="33.84615384615385" width="4.516129032258064" height="9.23076923076923" as="geometry" />
        </mxCell>
        <mxCell id="VNDWo4RkkPxamhbVpxff-113" style="vsdxID=16;fillColor=#000000;gradientColor=none;shape=stencil(nZBLDoAgDERP0z3SIyjew0SURgSD+Lu9kMZoXLhwN9O+tukAlrNpJg1SzDH4QW/URgNYgZTkjA4UkwJUgGXng+6DX1zLfmoymdXo17xh5zmRJ6Q42BWCfc2oJfdAr+Yv+AP9Cb7OJ3H/2JG1HNGz/84klThPVCc=);strokeColor=none;spacingTop=-3;spacingBottom=-3;spacingLeft=-3;spacingRight=-3;labelBackgroundColor=none;rounded=0;html=1;whiteSpace=wrap;" vertex="1" parent="VNDWo4RkkPxamhbVpxff-102">
          <mxGeometry x="36.12903225806451" y="33.84615384615385" width="4.516129032258064" height="9.23076923076923" as="geometry" />
        </mxCell>
        <mxCell id="VNDWo4RkkPxamhbVpxff-114" style="vsdxID=17;fillColor=#000000;gradientColor=none;shape=stencil(vVHLDsIgEPwajiQI6RfU+h8bu22JCGRB2/69kG1iazx58DazM/vIjjBtmiCi0CplCjecbZ8nYc5Ca+snJJsLEqYTph0C4Ujh4XvmEaqzont41gkL96naodXKrGF6YSfQtUi0OXXDVlqPfJNP6usotUhYbJIUMmQb/GGrAxpRljVycDBuc1hKM2LclX8/7H9nFfB+82Cd45T2+mcspcSRmu4F);strokeColor=none;spacingTop=-3;spacingBottom=-3;spacingLeft=-3;spacingRight=-3;labelBackgroundColor=none;rounded=0;html=1;whiteSpace=wrap;" vertex="1" parent="VNDWo4RkkPxamhbVpxff-102">
          <mxGeometry x="117.41935483870967" y="36.92307692307692" width="4.516129032258064" height="3.076923076923077" as="geometry" />
        </mxCell>
        <mxCell id="VNDWo4RkkPxamhbVpxff-115" style="vsdxID=18;fillColor=#000000;gradientColor=none;shape=stencil(vZLdDsIgDIWfprcEaJzues73WDImRISFMX/eXpAYHdEl08S708PXliYHsBpk0wvgdPDOHsRZtV4CboFzZaRwygcFWANWnXVi7+xo2lT3TSSjOtpTnHBJfWVBCha7OL0mh3Gyuhu7xGtlZvnNeo5HguUv+NLf5Pz0WkbphKafR38JPja8RfP1i+A/oEE8c9IprVPMXt/zXAUrZRLrGw==);strokeColor=none;spacingTop=-3;spacingBottom=-3;spacingLeft=-3;spacingRight=-3;labelBackgroundColor=none;rounded=0;html=1;whiteSpace=wrap;" vertex="1" parent="VNDWo4RkkPxamhbVpxff-102">
          <mxGeometry y="55.38461538461539" width="140" height="24.615384615384617" as="geometry" />
        </mxCell>
        <mxCell id="VNDWo4RkkPxamhbVpxff-116" style="vsdxID=19;fillColor=#000000;gradientColor=none;shape=stencil(nZBLDoAgDERP0z3SIyjew0SURgSD+Lu9kMZoXLhwN9O+tukAlrNpJg1SzDH4QW/URgNYgZTkjA4UkwJUgGXng+6DX1zLfmoymdXo17xh5zmRJ6Q42BWCfc2oJfdAr+Yv+AP9Cb7OJ3H/2JG1HNGz/84klThPVCc=);strokeColor=none;spacingTop=-3;spacingBottom=-3;spacingLeft=-3;spacingRight=-3;labelBackgroundColor=none;rounded=0;html=1;whiteSpace=wrap;" vertex="1" parent="VNDWo4RkkPxamhbVpxff-102">
          <mxGeometry x="13.54838709677419" y="61.53846153846155" width="4.516129032258064" height="9.23076923076923" as="geometry" />
        </mxCell>
        <mxCell id="VNDWo4RkkPxamhbVpxff-117" style="vsdxID=20;fillColor=#000000;gradientColor=none;shape=stencil(nZBLDoAgDERP0z3SIyjew0SURgSD+Lu9kMZoXLhwN9O+tukAlrNpJg1SzDH4QW/URgNYgZTkjA4UkwJUgGXng+6DX1zLfmoymdXo17xh5zmRJ6Q42BWCfc2oJfdAr+Yv+AP9Cb7OJ3H/2JG1HNGz/84klThPVCc=);strokeColor=none;spacingTop=-3;spacingBottom=-3;spacingLeft=-3;spacingRight=-3;labelBackgroundColor=none;rounded=0;html=1;whiteSpace=wrap;" vertex="1" parent="VNDWo4RkkPxamhbVpxff-102">
          <mxGeometry x="18.064516129032256" y="61.53846153846155" width="4.516129032258064" height="9.23076923076923" as="geometry" />
        </mxCell>
        <mxCell id="VNDWo4RkkPxamhbVpxff-118" style="vsdxID=21;fillColor=#000000;gradientColor=none;shape=stencil(nZBLDoAgDERP0z3SIyjew0SURgSD+Lu9kMZoXLhwN9O+tukAlrNpJg1SzDH4QW/URgNYgZTkjA4UkwJUgGXng+6DX1zLfmoymdXo17xh5zmRJ6Q42BWCfc2oJfdAr+Yv+AP9Cb7OJ3H/2JG1HNGz/84klThPVCc=);strokeColor=none;spacingTop=-3;spacingBottom=-3;spacingLeft=-3;spacingRight=-3;labelBackgroundColor=none;rounded=0;html=1;whiteSpace=wrap;" vertex="1" parent="VNDWo4RkkPxamhbVpxff-102">
          <mxGeometry x="27.09677419354838" y="61.53846153846155" width="4.516129032258064" height="9.23076923076923" as="geometry" />
        </mxCell>
        <mxCell id="VNDWo4RkkPxamhbVpxff-119" style="vsdxID=22;fillColor=#000000;gradientColor=none;shape=stencil(nZBLDoAgDERP0z3SIyjew0SURgSD+Lu9kMZoXLhwN9O+tukAlrNpJg1SzDH4QW/URgNYgZTkjA4UkwJUgGXng+6DX1zLfmoymdXo17xh5zmRJ6Q42BWCfc2oJfdAr+Yv+AP9Cb7OJ3H/2JG1HNGz/84klThPVCc=);strokeColor=none;spacingTop=-3;spacingBottom=-3;spacingLeft=-3;spacingRight=-3;labelBackgroundColor=none;rounded=0;html=1;whiteSpace=wrap;" vertex="1" parent="VNDWo4RkkPxamhbVpxff-102">
          <mxGeometry x="36.12903225806451" y="61.53846153846155" width="4.516129032258064" height="9.23076923076923" as="geometry" />
        </mxCell>
        <mxCell id="VNDWo4RkkPxamhbVpxff-120" style="vsdxID=23;fillColor=#000000;gradientColor=none;shape=stencil(vVHLDsIgEPwajiQI6RfU+h8bu22JCGRB2/69kG1iazx58DazM/vIjjBtmiCi0CplCjecbZ8nYc5Ca+snJJsLEqYTph0C4Ujh4XvmEaqzont41gkL96naodXKrGF6YSfQtUi0OXXDVlqPfJNP6usotUhYbJIUMmQb/GGrAxpRljVycDBuc1hKM2LclX8/7H9nFfB+82Cd45T2+mcspcSRmu4F);strokeColor=none;spacingTop=-3;spacingBottom=-3;spacingLeft=-3;spacingRight=-3;labelBackgroundColor=none;rounded=0;html=1;whiteSpace=wrap;" vertex="1" parent="VNDWo4RkkPxamhbVpxff-102">
          <mxGeometry x="117.41935483870967" y="64.61538461538461" width="4.516129032258064" height="3.076923076923077" as="geometry" />
        </mxCell>
        <mxCell id="VNDWo4RkkPxamhbVpxff-140" style="vsdxID=5;fillColor=none;gradientColor=none;labelBackgroundColor=none;rounded=0;strokeColor=none;html=1;whiteSpace=wrap;dashed=1;" vertex="1" parent="VNDWo4RkkPxamhbVpxff-1">
          <mxGeometry x="500" y="480" width="140" height="80" as="geometry" />
        </mxCell>
        <mxCell id="VNDWo4RkkPxamhbVpxff-141" style="vsdxID=6;fillColor=#000000;gradientColor=none;shape=stencil(vZLdDsIgDIWfprcEaJzues73WDImRISFMX/eXpAYHdEl08S708PXliYHsBpk0wvgdPDOHsRZtV4CboFzZaRwygcFWANWnXVi7+xo2lT3TSSjOtpTnHBJfWVBCha7OL0mh3Gyuhu7xGtlZvnNeo5HguUv+NLf5Pz0WkbphKafR38JPja8RfP1i+A/oEE8c9IprVPMXt/zXAUrZRLrGw==);strokeColor=none;spacingTop=-3;spacingBottom=-3;spacingLeft=-3;spacingRight=-3;labelBackgroundColor=none;rounded=0;html=1;whiteSpace=wrap;" vertex="1" parent="VNDWo4RkkPxamhbVpxff-140">
          <mxGeometry width="140" height="24.615384615384617" as="geometry" />
        </mxCell>
        <mxCell id="VNDWo4RkkPxamhbVpxff-142" style="vsdxID=7;fillColor=#000000;gradientColor=none;shape=stencil(nZBLDoAgDERP0z3SIyjew0SURgSD+Lu9kMZoXLhwN9O+tukAlrNpJg1SzDH4QW/URgNYgZTkjA4UkwJUgGXng+6DX1zLfmoymdXo17xh5zmRJ6Q42BWCfc2oJfdAr+Yv+AP9Cb7OJ3H/2JG1HNGz/84klThPVCc=);strokeColor=none;spacingTop=-3;spacingBottom=-3;spacingLeft=-3;spacingRight=-3;labelBackgroundColor=none;rounded=0;html=1;whiteSpace=wrap;" vertex="1" parent="VNDWo4RkkPxamhbVpxff-140">
          <mxGeometry x="13.54838709677419" y="6.153846153846154" width="4.516129032258064" height="9.23076923076923" as="geometry" />
        </mxCell>
        <mxCell id="VNDWo4RkkPxamhbVpxff-143" style="vsdxID=8;fillColor=#000000;gradientColor=none;shape=stencil(nZBLDoAgDERP0z3SIyjew0SURgSD+Lu9kMZoXLhwN9O+tukAlrNpJg1SzDH4QW/URgNYgZTkjA4UkwJUgGXng+6DX1zLfmoymdXo17xh5zmRJ6Q42BWCfc2oJfdAr+Yv+AP9Cb7OJ3H/2JG1HNGz/84klThPVCc=);strokeColor=none;spacingTop=-3;spacingBottom=-3;spacingLeft=-3;spacingRight=-3;labelBackgroundColor=none;rounded=0;html=1;whiteSpace=wrap;" vertex="1" parent="VNDWo4RkkPxamhbVpxff-140">
          <mxGeometry x="18.064516129032256" y="6.153846153846154" width="4.516129032258064" height="9.23076923076923" as="geometry" />
        </mxCell>
        <mxCell id="VNDWo4RkkPxamhbVpxff-144" style="vsdxID=9;fillColor=#000000;gradientColor=none;shape=stencil(nZBLDoAgDERP0z3SIyjew0SURgSD+Lu9kMZoXLhwN9O+tukAlrNpJg1SzDH4QW/URgNYgZTkjA4UkwJUgGXng+6DX1zLfmoymdXo17xh5zmRJ6Q42BWCfc2oJfdAr+Yv+AP9Cb7OJ3H/2JG1HNGz/84klThPVCc=);strokeColor=none;spacingTop=-3;spacingBottom=-3;spacingLeft=-3;spacingRight=-3;labelBackgroundColor=none;rounded=0;html=1;whiteSpace=wrap;" vertex="1" parent="VNDWo4RkkPxamhbVpxff-140">
          <mxGeometry x="27.09677419354838" y="6.153846153846154" width="4.516129032258064" height="9.23076923076923" as="geometry" />
        </mxCell>
        <mxCell id="VNDWo4RkkPxamhbVpxff-145" style="vsdxID=10;fillColor=#000000;gradientColor=none;shape=stencil(nZBLDoAgDERP0z3SIyjew0SURgSD+Lu9kMZoXLhwN9O+tukAlrNpJg1SzDH4QW/URgNYgZTkjA4UkwJUgGXng+6DX1zLfmoymdXo17xh5zmRJ6Q42BWCfc2oJfdAr+Yv+AP9Cb7OJ3H/2JG1HNGz/84klThPVCc=);strokeColor=none;spacingTop=-3;spacingBottom=-3;spacingLeft=-3;spacingRight=-3;labelBackgroundColor=none;rounded=0;html=1;whiteSpace=wrap;" vertex="1" parent="VNDWo4RkkPxamhbVpxff-140">
          <mxGeometry x="36.12903225806451" y="6.153846153846154" width="4.516129032258064" height="9.23076923076923" as="geometry" />
        </mxCell>
        <mxCell id="VNDWo4RkkPxamhbVpxff-146" style="vsdxID=11;fillColor=#000000;gradientColor=none;shape=stencil(vVHLDsIgEPwajiQI6RfU+h8bu22JCGRB2/69kG1iazx58DazM/vIjjBtmiCi0CplCjecbZ8nYc5Ca+snJJsLEqYTph0C4Ujh4XvmEaqzont41gkL96naodXKrGF6YSfQtUi0OXXDVlqPfJNP6usotUhYbJIUMmQb/GGrAxpRljVycDBuc1hKM2LclX8/7H9nFfB+82Cd45T2+mcspcSRmu4F);strokeColor=none;spacingTop=-3;spacingBottom=-3;spacingLeft=-3;spacingRight=-3;labelBackgroundColor=none;rounded=0;html=1;whiteSpace=wrap;" vertex="1" parent="VNDWo4RkkPxamhbVpxff-140">
          <mxGeometry x="117.41935483870967" y="9.23076923076923" width="4.516129032258064" height="3.076923076923077" as="geometry" />
        </mxCell>
        <mxCell id="VNDWo4RkkPxamhbVpxff-147" style="vsdxID=12;fillColor=#000000;gradientColor=none;shape=stencil(vZLdDsIgDIWfprcEaJzues73WDImRISFMX/eXpAYHdEl08S708PXliYHsBpk0wvgdPDOHsRZtV4CboFzZaRwygcFWANWnXVi7+xo2lT3TSSjOtpTnHBJfWVBCha7OL0mh3Gyuhu7xGtlZvnNeo5HguUv+NLf5Pz0WkbphKafR38JPja8RfP1i+A/oEE8c9IprVPMXt/zXAUrZRLrGw==);strokeColor=none;spacingTop=-3;spacingBottom=-3;spacingLeft=-3;spacingRight=-3;labelBackgroundColor=none;rounded=0;html=1;whiteSpace=wrap;" vertex="1" parent="VNDWo4RkkPxamhbVpxff-140">
          <mxGeometry y="27.692307692307693" width="140" height="24.615384615384617" as="geometry" />
        </mxCell>
        <mxCell id="VNDWo4RkkPxamhbVpxff-148" style="vsdxID=13;fillColor=#000000;gradientColor=none;shape=stencil(nZBLDoAgDERP0z3SIyjew0SURgSD+Lu9kMZoXLhwN9O+tukAlrNpJg1SzDH4QW/URgNYgZTkjA4UkwJUgGXng+6DX1zLfmoymdXo17xh5zmRJ6Q42BWCfc2oJfdAr+Yv+AP9Cb7OJ3H/2JG1HNGz/84klThPVCc=);strokeColor=none;spacingTop=-3;spacingBottom=-3;spacingLeft=-3;spacingRight=-3;labelBackgroundColor=none;rounded=0;html=1;whiteSpace=wrap;" vertex="1" parent="VNDWo4RkkPxamhbVpxff-140">
          <mxGeometry x="13.54838709677419" y="33.84615384615385" width="4.516129032258064" height="9.23076923076923" as="geometry" />
        </mxCell>
        <mxCell id="VNDWo4RkkPxamhbVpxff-149" style="vsdxID=14;fillColor=#000000;gradientColor=none;shape=stencil(nZBLDoAgDERP0z3SIyjew0SURgSD+Lu9kMZoXLhwN9O+tukAlrNpJg1SzDH4QW/URgNYgZTkjA4UkwJUgGXng+6DX1zLfmoymdXo17xh5zmRJ6Q42BWCfc2oJfdAr+Yv+AP9Cb7OJ3H/2JG1HNGz/84klThPVCc=);strokeColor=none;spacingTop=-3;spacingBottom=-3;spacingLeft=-3;spacingRight=-3;labelBackgroundColor=none;rounded=0;html=1;whiteSpace=wrap;" vertex="1" parent="VNDWo4RkkPxamhbVpxff-140">
          <mxGeometry x="18.064516129032256" y="33.84615384615385" width="4.516129032258064" height="9.23076923076923" as="geometry" />
        </mxCell>
        <mxCell id="VNDWo4RkkPxamhbVpxff-150" style="vsdxID=15;fillColor=#000000;gradientColor=none;shape=stencil(nZBLDoAgDERP0z3SIyjew0SURgSD+Lu9kMZoXLhwN9O+tukAlrNpJg1SzDH4QW/URgNYgZTkjA4UkwJUgGXng+6DX1zLfmoymdXo17xh5zmRJ6Q42BWCfc2oJfdAr+Yv+AP9Cb7OJ3H/2JG1HNGz/84klThPVCc=);strokeColor=none;spacingTop=-3;spacingBottom=-3;spacingLeft=-3;spacingRight=-3;labelBackgroundColor=none;rounded=0;html=1;whiteSpace=wrap;" vertex="1" parent="VNDWo4RkkPxamhbVpxff-140">
          <mxGeometry x="27.09677419354838" y="33.84615384615385" width="4.516129032258064" height="9.23076923076923" as="geometry" />
        </mxCell>
        <mxCell id="VNDWo4RkkPxamhbVpxff-151" style="vsdxID=16;fillColor=#000000;gradientColor=none;shape=stencil(nZBLDoAgDERP0z3SIyjew0SURgSD+Lu9kMZoXLhwN9O+tukAlrNpJg1SzDH4QW/URgNYgZTkjA4UkwJUgGXng+6DX1zLfmoymdXo17xh5zmRJ6Q42BWCfc2oJfdAr+Yv+AP9Cb7OJ3H/2JG1HNGz/84klThPVCc=);strokeColor=none;spacingTop=-3;spacingBottom=-3;spacingLeft=-3;spacingRight=-3;labelBackgroundColor=none;rounded=0;html=1;whiteSpace=wrap;" vertex="1" parent="VNDWo4RkkPxamhbVpxff-140">
          <mxGeometry x="36.12903225806451" y="33.84615384615385" width="4.516129032258064" height="9.23076923076923" as="geometry" />
        </mxCell>
        <mxCell id="VNDWo4RkkPxamhbVpxff-152" style="vsdxID=17;fillColor=#000000;gradientColor=none;shape=stencil(vVHLDsIgEPwajiQI6RfU+h8bu22JCGRB2/69kG1iazx58DazM/vIjjBtmiCi0CplCjecbZ8nYc5Ca+snJJsLEqYTph0C4Ujh4XvmEaqzont41gkL96naodXKrGF6YSfQtUi0OXXDVlqPfJNP6usotUhYbJIUMmQb/GGrAxpRljVycDBuc1hKM2LclX8/7H9nFfB+82Cd45T2+mcspcSRmu4F);strokeColor=none;spacingTop=-3;spacingBottom=-3;spacingLeft=-3;spacingRight=-3;labelBackgroundColor=none;rounded=0;html=1;whiteSpace=wrap;" vertex="1" parent="VNDWo4RkkPxamhbVpxff-140">
          <mxGeometry x="117.41935483870967" y="36.92307692307692" width="4.516129032258064" height="3.076923076923077" as="geometry" />
        </mxCell>
        <mxCell id="VNDWo4RkkPxamhbVpxff-153" style="vsdxID=18;fillColor=#000000;gradientColor=none;shape=stencil(vZLdDsIgDIWfprcEaJzues73WDImRISFMX/eXpAYHdEl08S708PXliYHsBpk0wvgdPDOHsRZtV4CboFzZaRwygcFWANWnXVi7+xo2lT3TSSjOtpTnHBJfWVBCha7OL0mh3Gyuhu7xGtlZvnNeo5HguUv+NLf5Pz0WkbphKafR38JPja8RfP1i+A/oEE8c9IprVPMXt/zXAUrZRLrGw==);strokeColor=none;spacingTop=-3;spacingBottom=-3;spacingLeft=-3;spacingRight=-3;labelBackgroundColor=none;rounded=0;html=1;whiteSpace=wrap;" vertex="1" parent="VNDWo4RkkPxamhbVpxff-140">
          <mxGeometry y="55.38461538461539" width="140" height="24.615384615384617" as="geometry" />
        </mxCell>
        <mxCell id="VNDWo4RkkPxamhbVpxff-154" style="vsdxID=19;fillColor=#000000;gradientColor=none;shape=stencil(nZBLDoAgDERP0z3SIyjew0SURgSD+Lu9kMZoXLhwN9O+tukAlrNpJg1SzDH4QW/URgNYgZTkjA4UkwJUgGXng+6DX1zLfmoymdXo17xh5zmRJ6Q42BWCfc2oJfdAr+Yv+AP9Cb7OJ3H/2JG1HNGz/84klThPVCc=);strokeColor=none;spacingTop=-3;spacingBottom=-3;spacingLeft=-3;spacingRight=-3;labelBackgroundColor=none;rounded=0;html=1;whiteSpace=wrap;" vertex="1" parent="VNDWo4RkkPxamhbVpxff-140">
          <mxGeometry x="13.54838709677419" y="61.53846153846155" width="4.516129032258064" height="9.23076923076923" as="geometry" />
        </mxCell>
        <mxCell id="VNDWo4RkkPxamhbVpxff-155" style="vsdxID=20;fillColor=#000000;gradientColor=none;shape=stencil(nZBLDoAgDERP0z3SIyjew0SURgSD+Lu9kMZoXLhwN9O+tukAlrNpJg1SzDH4QW/URgNYgZTkjA4UkwJUgGXng+6DX1zLfmoymdXo17xh5zmRJ6Q42BWCfc2oJfdAr+Yv+AP9Cb7OJ3H/2JG1HNGz/84klThPVCc=);strokeColor=none;spacingTop=-3;spacingBottom=-3;spacingLeft=-3;spacingRight=-3;labelBackgroundColor=none;rounded=0;html=1;whiteSpace=wrap;" vertex="1" parent="VNDWo4RkkPxamhbVpxff-140">
          <mxGeometry x="18.064516129032256" y="61.53846153846155" width="4.516129032258064" height="9.23076923076923" as="geometry" />
        </mxCell>
        <mxCell id="VNDWo4RkkPxamhbVpxff-156" style="vsdxID=21;fillColor=#000000;gradientColor=none;shape=stencil(nZBLDoAgDERP0z3SIyjew0SURgSD+Lu9kMZoXLhwN9O+tukAlrNpJg1SzDH4QW/URgNYgZTkjA4UkwJUgGXng+6DX1zLfmoymdXo17xh5zmRJ6Q42BWCfc2oJfdAr+Yv+AP9Cb7OJ3H/2JG1HNGz/84klThPVCc=);strokeColor=none;spacingTop=-3;spacingBottom=-3;spacingLeft=-3;spacingRight=-3;labelBackgroundColor=none;rounded=0;html=1;whiteSpace=wrap;" vertex="1" parent="VNDWo4RkkPxamhbVpxff-140">
          <mxGeometry x="27.09677419354838" y="61.53846153846155" width="4.516129032258064" height="9.23076923076923" as="geometry" />
        </mxCell>
        <mxCell id="VNDWo4RkkPxamhbVpxff-157" style="vsdxID=22;fillColor=#000000;gradientColor=none;shape=stencil(nZBLDoAgDERP0z3SIyjew0SURgSD+Lu9kMZoXLhwN9O+tukAlrNpJg1SzDH4QW/URgNYgZTkjA4UkwJUgGXng+6DX1zLfmoymdXo17xh5zmRJ6Q42BWCfc2oJfdAr+Yv+AP9Cb7OJ3H/2JG1HNGz/84klThPVCc=);strokeColor=none;spacingTop=-3;spacingBottom=-3;spacingLeft=-3;spacingRight=-3;labelBackgroundColor=none;rounded=0;html=1;whiteSpace=wrap;" vertex="1" parent="VNDWo4RkkPxamhbVpxff-140">
          <mxGeometry x="36.12903225806451" y="61.53846153846155" width="4.516129032258064" height="9.23076923076923" as="geometry" />
        </mxCell>
        <mxCell id="VNDWo4RkkPxamhbVpxff-158" style="vsdxID=23;fillColor=#000000;gradientColor=none;shape=stencil(vVHLDsIgEPwajiQI6RfU+h8bu22JCGRB2/69kG1iazx58DazM/vIjjBtmiCi0CplCjecbZ8nYc5Ca+snJJsLEqYTph0C4Ujh4XvmEaqzont41gkL96naodXKrGF6YSfQtUi0OXXDVlqPfJNP6usotUhYbJIUMmQb/GGrAxpRljVycDBuc1hKM2LclX8/7H9nFfB+82Cd45T2+mcspcSRmu4F);strokeColor=none;spacingTop=-3;spacingBottom=-3;spacingLeft=-3;spacingRight=-3;labelBackgroundColor=none;rounded=0;html=1;whiteSpace=wrap;" vertex="1" parent="VNDWo4RkkPxamhbVpxff-140">
          <mxGeometry x="117.41935483870967" y="64.61538461538461" width="4.516129032258064" height="3.076923076923077" as="geometry" />
        </mxCell>
        <mxCell id="VNDWo4RkkPxamhbVpxff-159" value="&lt;font style=&quot;font-size: 16px&quot;&gt;ESXi хосты&lt;/font&gt;" style="text;html=1;resizable=0;autosize=1;align=center;verticalAlign=middle;points=[];fillColor=none;strokeColor=none;rounded=0;dashed=1;" vertex="1" parent="VNDWo4RkkPxamhbVpxff-1">
          <mxGeometry x="424" y="570" width="100" height="20" as="geometry" />
        </mxCell>
        <mxCell id="VNDWo4RkkPxamhbVpxff-166" value="DC1" style="text;html=1;resizable=0;autosize=1;align=center;verticalAlign=middle;points=[];fillColor=none;strokeColor=none;rounded=0;dashed=1;fontSize=15;" vertex="1" parent="VNDWo4RkkPxamhbVpxff-1">
          <mxGeometry x="240" y="700" width="50" height="20" as="geometry" />
        </mxCell>
        <mxCell id="VNDWo4RkkPxamhbVpxff-168" style="vsdxID=5;fillColor=none;gradientColor=none;labelBackgroundColor=none;rounded=0;strokeColor=none;html=1;whiteSpace=wrap;" vertex="1" parent="VNDWo4RkkPxamhbVpxff-1">
          <mxGeometry x="7.105427357601002e-15" y="340" width="60" height="100" as="geometry" />
        </mxCell>
        <mxCell id="VNDWo4RkkPxamhbVpxff-169" style="vsdxID=6;fillColor=#000000;gradientColor=none;shape=stencil(pVjZctswDPwavWJ4gcdzmvxHpnFqT1074zit+/elK1EhqQgkRm8yvUtgFxAPDfrhff/8thuUeL9ezj93fw4v1/2gvw1KHU773eVwjU+Dfhz0w+v5svtxOX+cXsbfb8935P3p1/n3fYbbyLMQ9J2kxN9xQAlA83/kacQfD6cMjx6M2kYwccSvE6wG7bYRpAPp1gkSgt+EDwG0XscrBGc2EhCCJSTXVePiG0Vr48suMg6w6goDQRGWOvBbCR4U0RWxacRWAp0SW3QHoWWrxpRkp0t8ggfNcolPoFNii+4gtGw1CJLlEp9Ar2FLl/gEOiW26A5CaetSdFz7qfdBO7BbCQhIrHtfpMQm0Cl1EFou2UC2d1yMldlIQLAs0XwCnVIHoeWSC2S3LkXzCXEXZonmE+iUOggtl3wg23spmk+IIxwJbDydUAeh9ChAKPeGdFj8+rSq0zmqE19PLzVQR1UEjQw8urSWJLwgJq8PbQRWcJIAw8mZZ3gLXd1WDPgyF1QgQ074/nEZGXLetDB1sKw54qamPg+QrhDTiFVzJ9z0AjSNOAuCjJ5R5NyuSpfB8xSnISlEGTtXrkvMSmhvQNoy9uesdZgUN89O15he0fG2g2XgaKatROfpqWVd1mUvKl69Be0WYRNaTRgsaMqQeFhDWToyU2ZDtAGLpSHegZKlITkq1aPehurwOUfOGtLQ3IXZiTIVBEGpdkFm1Fonyrmu8yuYzTwFi1dYUemPwXSlP0et6a9WmIzRaVgwgJVheSnUUpZaVHXdr7pbWu24FV92L1ow1Y4e2x3XA6CAUK7RzqcdofPi4AV4SURYpmTBE5tGvnZMLsTmJSLEBGypoXHC5bvUJsSHz69wr4fjcfyIl/9ff7WLQ+MXP/34Dw==);strokeColor=none;spacingTop=-3;spacingBottom=-3;spacingLeft=-3;spacingRight=-3;labelBackgroundColor=none;rounded=0;html=1;whiteSpace=wrap;" vertex="1" parent="VNDWo4RkkPxamhbVpxff-168">
          <mxGeometry width="60" height="70" as="geometry" />
        </mxCell>
        <mxCell id="VNDWo4RkkPxamhbVpxff-170" value="DNS-1" style="text;html=1;resizable=0;autosize=1;align=center;verticalAlign=middle;points=[];fillColor=none;strokeColor=none;rounded=0;dashed=1;fontSize=16;" vertex="1" parent="VNDWo4RkkPxamhbVpxff-168">
          <mxGeometry x="-2.1316282072803006e-14" y="80" width="60" height="20" as="geometry" />
        </mxCell>
        <mxCell id="VNDWo4RkkPxamhbVpxff-171" value="" style="aspect=fixed;pointerEvents=1;shadow=0;dashed=0;html=1;strokeColor=none;labelPosition=center;verticalLabelPosition=bottom;verticalAlign=top;align=center;shape=mxgraph.mscae.enterprise.not_allowed;fillColor=#EA1C24;rounded=0;glass=0;fontSize=16;" vertex="1" parent="VNDWo4RkkPxamhbVpxff-1">
          <mxGeometry x="153" y="416" width="50" height="50" as="geometry" />
        </mxCell>
        <mxCell id="VNDWo4RkkPxamhbVpxff-174" value="" style="edgeStyle=orthogonalEdgeStyle;rounded=0;orthogonalLoop=1;jettySize=auto;html=1;exitX=1;exitY=0.5;exitDx=0;exitDy=0;fontSize=16;endArrow=none;" edge="1" parent="VNDWo4RkkPxamhbVpxff-1" source="VNDWo4RkkPxamhbVpxff-87" target="VNDWo4RkkPxamhbVpxff-171">
          <mxGeometry relative="1" as="geometry">
            <mxPoint x="120" y="410" as="sourcePoint" />
            <mxPoint x="240.6500000000001" y="520" as="targetPoint" />
          </mxGeometry>
        </mxCell>
        <mxCell id="VNDWo4RkkPxamhbVpxff-175" value="Оператор" style="text;html=1;resizable=0;autosize=1;align=center;verticalAlign=middle;points=[];fillColor=none;strokeColor=none;rounded=0;glass=0;dashed=1;fontSize=16;" vertex="1" parent="VNDWo4RkkPxamhbVpxff-1">
          <mxGeometry x="88" y="660" width="90" height="20" as="geometry" />
        </mxCell>
        <mxCell id="VNDWo4RkkPxamhbVpxff-176" style="edgeStyle=orthogonalEdgeStyle;rounded=0;orthogonalLoop=1;jettySize=auto;html=1;entryX=0.5;entryY=0;entryDx=0;entryDy=0;fontSize=16;startArrow=none;" edge="1" parent="VNDWo4RkkPxamhbVpxff-1" source="VNDWo4RkkPxamhbVpxff-177" target="VNDWo4RkkPxamhbVpxff-2">
          <mxGeometry relative="1" as="geometry" />
        </mxCell>
        <mxCell id="VNDWo4RkkPxamhbVpxff-177" value="" style="aspect=fixed;pointerEvents=1;shadow=0;dashed=0;html=1;strokeColor=none;labelPosition=center;verticalLabelPosition=bottom;verticalAlign=top;align=center;shape=mxgraph.mscae.enterprise.not_allowed;fillColor=#EA1C24;rounded=0;glass=0;fontSize=16;" vertex="1" parent="VNDWo4RkkPxamhbVpxff-1">
          <mxGeometry x="65" y="489.23" width="50" height="50" as="geometry" />
        </mxCell>
        <mxCell id="VNDWo4RkkPxamhbVpxff-178" value="" style="edgeStyle=orthogonalEdgeStyle;rounded=0;orthogonalLoop=1;jettySize=auto;html=1;entryX=0.5;entryY=0;entryDx=0;entryDy=0;fontSize=16;endArrow=none;" edge="1" parent="VNDWo4RkkPxamhbVpxff-1" source="VNDWo4RkkPxamhbVpxff-167" target="VNDWo4RkkPxamhbVpxff-177">
          <mxGeometry relative="1" as="geometry">
            <mxPoint x="90" y="460" as="sourcePoint" />
            <mxPoint x="100" y="570" as="targetPoint" />
          </mxGeometry>
        </mxCell>
      </root>
    </mxGraphModel>
  </diagram>
</mxfile>
